<?xml version="1.0" encoding="UTF-8" standalone="no"?>
<!-- Created with Inkscape (http://www.inkscape.org/) -->

<svg
   width="125"
   height="17"
   viewBox="0 0 33.072915 4.4979167"
   version="1.1"
   id="svg67"
   inkscape:export-filename="../../../../../bitmap.png"
   inkscape:export-xdpi="96"
   inkscape:export-ydpi="96"
   inkscape:version="1.2.2 (b0a8486541, 2022-12-01)"
   sodipodi:docname="logo.svg"
   xmlns:inkscape="http://www.inkscape.org/namespaces/inkscape"
   xmlns:sodipodi="http://sodipodi.sourceforge.net/DTD/sodipodi-0.dtd"
   xmlns="http://www.w3.org/2000/svg"
   xmlns:svg="http://www.w3.org/2000/svg">
  <sodipodi:namedview
     id="namedview69"
     pagecolor="#505050"
     bordercolor="#ffffff"
     borderopacity="1"
     inkscape:showpageshadow="0"
     inkscape:pageopacity="0"
     inkscape:pagecheckerboard="1"
     inkscape:deskcolor="#505050"
     inkscape:document-units="mm"
     showgrid="true"
     inkscape:zoom="16"
     inkscape:cx="51.75"
     inkscape:cy="0.71875"
     inkscape:window-width="2560"
     inkscape:window-height="1019"
     inkscape:window-x="0"
     inkscape:window-y="30"
     inkscape:window-maximized="1"
     inkscape:current-layer="text274">
    <inkscape:grid
       type="xygrid"
       id="grid330"
       dotted="false"
       originx="1.0093168e-06"
       originy="1.5008399e-07"
       snapvisiblegridlinesonly="false"
       empspacing="1" />
  </sodipodi:namedview>
  <defs
     id="defs64">
    <rect
       x="-277.48486"
       y="339.87689"
       width="1547.182"
       height="385.14801"
       id="rect276" />
  </defs>
  <g
     inkscape:label="Layer 1"
     inkscape:groupmode="layer"
     id="layer1"
     transform="translate(-0.03377147,-0.07387679)">
    <g
       aria-label="SEAN DAVIS"
       transform="matrix(0.34303938,0,0,0.34303938,94.827881,-117.29986)"
       id="text274"
       style="font-size:16px;letter-spacing:-0.58px;white-space:pre;shape-inside:url(#rect276);fill:#110e38">
      <g
         id="g195"
         transform="translate(-0.29123074)">
        <path
           d="m -267.10096,343.24152 v 2.46875 q -0.96093,-0.42969 -1.875,-0.64844 -0.91406,-0.21875 -1.72656,-0.21875 -1.07812,0 -1.59375,0.29688 -0.51562,0.29687 -0.51562,0.92187 0,0.46875 0.34375,0.73438 0.35156,0.25781 1.26562,0.44531 l 1.28125,0.25781 q 1.94531,0.39063 2.76563,1.1875 0.82031,0.79688 0.82031,2.26563 0,1.92968 -1.14844,2.875 -1.14062,0.9375 -3.49219,0.9375 -1.10937,0 -2.22656,-0.21094 -1.11719,-0.21094 -2.23437,-0.625 v -2.53906 q 1.11718,0.59375 2.15625,0.89843 1.04687,0.29688 2.01562,0.29688 0.98438,0 1.50781,-0.32813 0.52344,-0.32812 0.52344,-0.9375 0,-0.54687 -0.35937,-0.84375 -0.35157,-0.29687 -1.41407,-0.53125 l -1.16406,-0.25781 q -1.75,-0.375 -2.5625,-1.19531 -0.80469,-0.82031 -0.80469,-2.21094 0,-1.74219 1.125,-2.67969 1.125,-0.9375 3.23438,-0.9375 0.96094,0 1.97656,0.14844 1.01563,0.14063 2.10156,0.42969 z"
           style="letter-spacing:-0.578469px"
           id="path8620" />
        <path
           d="m -265.12602,342.87395 h 8.11719 v 2.27344 h -5.10937 v 2.17187 h 4.80468 v 2.27344 h -4.80468 v 2.67188 h 5.28125 v 2.27343 h -8.28907 z"
           style="letter-spacing:-0.578469px"
           id="path8622" />
        <path
           d="m -247.78742,352.41301 h -4.70313 l -0.74219,2.125 h -3.02343 l 4.32031,-11.66406 h 3.58594 l 4.32031,11.66406 h -3.02344 z m -3.95313,-2.16406 h 3.19531 l -1.59375,-4.64062 z"
           style="font-weight:bold;-inkscape-font-specification:'sans-serif Bold'"
           id="path8624" />
        <path
           d="m -243.52987,342.87395 h 3.35938 l 4.24219,8 v -8 h 2.85156 v 11.66406 h -3.35938 l -4.24218,-8 v 8 h -2.85157 z"
           style="font-weight:bold;-inkscape-font-specification:'sans-serif Bold'"
           id="path8626" />
        <path
           d="m -223.168,345.14739 v 7.11719 h 1.07813 q 1.84375,0 2.8125,-0.91407 0.97656,-0.91406 0.97656,-2.65625 0,-1.73437 -0.96875,-2.64062 -0.96875,-0.90625 -2.82031,-0.90625 z m -3.00781,-2.27344 h 3.17188 q 2.65625,0 3.95312,0.38281 1.30469,0.375 2.23438,1.28125 0.82031,0.78907 1.21875,1.82032 0.39843,1.03125 0.39843,2.33593 0,1.32032 -0.39843,2.35938 -0.39844,1.03125 -1.21875,1.82031 -0.9375,0.90625 -2.25,1.28906 -1.3125,0.375 -3.9375,0.375 h -3.17188 z"
           style="font-weight:bold;-inkscape-font-specification:'sans-serif Bold'"
           id="path8628" />
        <path
           d="m -207.68027,352.41301 h -4.70313 l -0.74218,2.125 h -3.02344 l 4.32031,-11.66406 h 3.58594 l 4.32031,11.66406 h -3.02344 z m -3.95313,-2.16406 h 3.19532 l -1.59375,-4.64062 z"
           style="font-weight:bold;-inkscape-font-specification:'sans-serif Bold'"
           id="path8630" />
        <path
           d="m -206.6967,342.87395 h 3.02344 l 3.09375,8.60938 3.08594,-8.60938 h 3.02343 l -4.32031,11.66406 h -3.58594 z"
           style="font-weight:bold;-inkscape-font-specification:'sans-serif Bold'"
           id="path8632" />
        <path
           d="m -193.58475,342.87395 h 3.00781 v 11.66406 h -3.00781 z"
           style="font-weight:bold;-inkscape-font-specification:'sans-serif Bold'"
           id="path8634" />
        <path
           d="m -180.90515,343.24152 v 2.46875 q -0.96094,-0.42969 -1.875,-0.64844 -0.91407,-0.21875 -1.72657,-0.21875 -1.07812,0 -1.59375,0.29688 -0.51562,0.29687 -0.51562,0.92187 0,0.46875 0.34375,0.73438 0.35156,0.25781 1.26562,0.44531 l 1.28125,0.25781 q 1.94532,0.39063 2.76563,1.1875 0.82031,0.79688 0.82031,2.26563 0,1.92968 -1.14844,2.875 -1.14062,0.9375 -3.49218,0.9375 -1.10938,0 -2.22657,-0.21094 -1.11718,-0.21094 -2.23437,-0.625 v -2.53906 q 1.11719,0.59375 2.15625,0.89843 1.04687,0.29688 2.01562,0.29688 0.98438,0 1.50782,-0.32813 0.52343,-0.32812 0.52343,-0.9375 0,-0.54687 -0.35937,-0.84375 -0.35156,-0.29687 -1.41406,-0.53125 l -1.16407,-0.25781 q -1.75,-0.375 -2.5625,-1.19531 -0.80468,-0.82031 -0.80468,-2.21094 0,-1.74219 1.125,-2.67969 1.125,-0.9375 3.23437,-0.9375 0.96094,0 1.97656,0.14844 1.01563,0.14063 2.10157,0.42969 z"
           style="font-weight:bold;-inkscape-font-specification:'sans-serif Bold'"
           id="path8636" />
      </g>
    </g>
  </g>
</svg>
